# Blender v2.91.0 OBJ File: ''
# www.blender.org
mtllib House.mtl
o House_Mesh.011
v -9.000000 -6.750000 -0.000001
v -9.000000 6.750000 0.000001
v 9.000000 6.750000 0.000001
v 9.000000 -6.750000 -0.000001
v 9.000000 -6.750002 10.955042
v -9.000000 -6.750002 10.955042
v 9.000000 6.749998 10.955044
v -9.000000 6.749998 10.955044
v -9.000000 -7.875002 10.955042
v 9.000000 -7.875002 10.955042
v 9.000000 -7.875002 12.080042
v -9.000000 -7.875002 12.080042
v 9.000000 7.874998 10.955044
v -9.000000 7.874998 10.955044
v -9.000000 7.874998 12.080044
v 9.000000 7.874998 12.080044
v 9.000000 -0.000003 16.580044
v -9.000000 -0.000004 16.580044
v -8.746144 -7.451306 12.609029
v 8.746144 -7.451306 12.609029
v 8.746144 7.451301 12.609031
v -8.746144 7.451301 12.609031
v -1.125000 -4.176373 13.714656
v -1.125000 -4.176373 17.831299
v -1.125000 -1.878714 17.831299
v -1.125000 -1.878713 13.714657
v 1.125000 -4.176373 13.714656
v 1.125000 -1.878713 13.714657
v 1.125000 -1.878714 17.831299
v 1.125000 -4.176373 17.831299
vt 1.000000 0.000000
vt 1.000000 1.000000
vt 0.000000 1.000000
vt 0.000000 0.000000
vt 0.000000 0.000000
vt 1.000000 0.000000
vt 1.000000 1.000000
vt 0.000000 1.000000
vt 1.000000 0.000000
vt 1.000000 1.000000
vt 0.000000 1.000000
vt 0.000000 0.000000
vt 1.000000 0.000000
vt 1.000000 1.000000
vt 0.000000 1.000000
vt 0.000000 0.000000
vt 1.000000 1.000000
vt 0.000000 1.000000
vt 0.000000 0.000000
vt 1.000000 0.000000
vt 1.000000 0.000000
vt 0.000000 0.000000
vt 1.000000 1.000000
vt 0.000000 1.000000
vt 0.000000 1.000000
vt 1.000000 1.000000
vt 0.000000 0.000000
vt 1.000000 0.000000
vt 1.000000 0.500000
vt 0.000000 0.500000
vt 0.000000 0.000000
vt 1.000000 0.000000
vt 1.000000 1.000000
vt 0.000000 1.000000
vt 1.000000 0.000000
vt 1.000000 1.000000
vt 0.000000 1.000000
vt 0.000000 0.000000
vt 0.000000 0.000000
vt 1.000000 0.000000
vt 1.000000 1.000000
vt 0.000000 1.000000
vt 0.000000 0.000000
vt 1.000000 0.000000
vt 1.000000 1.000000
vt 0.000000 1.000000
vt 1.000000 0.000000
vt 0.000000 1.000000
vt 0.000000 0.000000
vt 1.000000 0.000000
vt 1.000000 1.000000
vt 0.000000 1.000000
vt 0.000000 0.000000
vt 1.000000 1.000000
vn 0.0000 0.0000 -1.0000
vn 0.0000 -1.0000 -0.0000
vn 1.0000 -0.0000 0.0000
vn 0.0000 1.0000 0.0000
vn -1.0000 -0.0000 0.0000
vn 0.0000 -0.4703 0.8825
vn 0.0000 0.4703 0.8825
vn 0.0000 0.7805 0.6252
vn -0.7004 -0.3541 0.6197
vn -0.7004 0.3541 0.6197
vn 0.0000 -0.7805 0.6251
vn 0.0000 -0.7805 0.6252
vn 0.7004 0.3541 0.6197
vn 0.7004 -0.3541 0.6197
vn 0.0000 0.0000 1.0000
usemtl Material.001
s 1
f 1/1/1 2/2/1 3/3/1
f 3/3/1 4/4/1 1/1/1
f 1/5/2 4/6/2 5/7/2
f 5/7/2 6/8/2 1/5/2
f 4/4/3 3/9/3 7/10/3
f 7/10/3 5/11/3 4/4/3
f 3/12/4 2/13/4 8/14/4
f 8/14/4 7/15/4 3/12/4
f 2/16/5 1/1/5 6/17/5
f 6/17/5 8/18/5 2/16/5
f 9/19/2 10/20/2 11/21/2
f 11/21/2 12/22/2 9/19/2
f 13/23/4 14/24/4 15/25/4
f 15/25/4 16/26/4 13/23/4
f 6/27/1 5/28/1 10/20/1
f 10/20/1 9/19/1 6/27/1
f 17/29/6 18/30/6 19/31/6
f 19/31/6 20/32/6 17/29/6
f 7/10/1 8/18/1 14/24/1
f 14/24/1 13/23/1 7/10/1
f 18/30/7 17/29/7 21/33/7
f 21/33/7 22/34/7 18/30/7
f 16/26/8 15/25/8 22/34/8
f 22/34/8 21/33/8 16/26/8
f 15/25/5 14/24/5 8/18/5
f 12/22/9 19/31/9 18/30/9
f 9/19/5 12/22/5 18/30/5
f 6/27/5 9/19/5 18/30/5
f 8/18/5 6/27/5 18/30/5
f 15/25/5 8/18/5 18/30/5
f 15/25/10 18/30/10 22/34/10
f 12/22/11 11/21/12 20/32/12
f 20/32/12 19/31/11 12/22/11
f 7/10/3 13/23/3 16/26/3
f 16/26/13 21/33/13 17/29/13
f 17/29/14 20/32/14 11/21/14
f 16/26/3 17/29/3 11/21/3
f 11/21/3 10/20/3 5/28/3
f 16/26/3 11/21/3 5/28/3
f 7/10/3 16/26/3 5/28/3
f 23/35/5 24/36/5 25/37/5
f 25/37/5 26/38/5 23/35/5
f 27/39/3 28/40/3 29/41/3
f 29/41/3 30/42/3 27/39/3
f 23/43/1 26/44/1 28/45/1
f 28/45/1 27/46/1 23/43/1
f 26/38/4 25/47/4 29/41/4
f 29/41/4 28/48/4 26/38/4
f 25/49/15 24/50/15 30/51/15
f 30/51/15 29/52/15 25/49/15
f 24/53/2 23/35/2 27/54/2
f 27/54/2 30/42/2 24/53/2
